<svg xmlns="http://www.w3.org/2000/svg" xmlns:xlink="http://www.w3.org/1999/xlink" width="477" zoomAndPan="magnify" viewBox="0 0 357.75 85.499998" height="114" preserveAspectRatio="xMidYMid meet" version="1.0"><defs><g/><clipPath id="23766a2595"><rect x="0" width="196" y="0" height="12"/></clipPath></defs><g fill="#000000" fill-opacity="1"><g transform="translate(18.453948, 54.369051)"><g><path d="M 0.359375 -29.109375 L 0.359375 -36.390625 L 25.9375 -36.390625 L 25.9375 -29.109375 L 17.296875 -29.109375 L 17.296875 0 L 9 0 L 9 -29.109375 Z M 0.359375 -29.109375 "/></g></g></g><g fill="#000000" fill-opacity="1"><g transform="translate(46.375357, 54.369051)"><g><path d="M 2.640625 -36.390625 L 15.65625 -36.390625 C 19.15625 -36.390625 22.007812 -35.453125 24.21875 -33.578125 C 26.425781 -31.710938 27.53125 -29.046875 27.53125 -25.578125 C 27.53125 -22.898438 26.859375 -20.65625 25.515625 -18.84375 C 24.179688 -17.039062 22.363281 -15.773438 20.0625 -15.046875 L 32.59375 0 L 22.046875 0 L 10.9375 -14.375 L 10.9375 0 L 2.640625 0 Z M 10.9375 -20.25 L 11.90625 -20.25 C 12.675781 -20.25 13.320312 -20.257812 13.84375 -20.28125 C 14.375 -20.3125 14.976562 -20.414062 15.65625 -20.59375 C 16.332031 -20.769531 16.875 -21.019531 17.28125 -21.34375 C 17.695312 -21.664062 18.050781 -22.132812 18.34375 -22.75 C 18.644531 -23.375 18.796875 -24.125 18.796875 -25 C 18.796875 -25.882812 18.644531 -26.632812 18.34375 -27.25 C 18.050781 -27.875 17.695312 -28.347656 17.28125 -28.671875 C 16.875 -28.992188 16.332031 -29.242188 15.65625 -29.421875 C 14.976562 -29.597656 14.375 -29.703125 13.84375 -29.734375 C 13.320312 -29.765625 12.675781 -29.78125 11.90625 -29.78125 L 10.9375 -29.78125 Z M 10.9375 -20.25 "/></g></g></g><g fill="#000000" fill-opacity="1"><g transform="translate(79.589866, 54.369051)"><g><path d="M 21.125 -36.390625 L 35.8125 0 L 26.90625 0 L 24.21875 -7.28125 L 10.359375 -7.28125 L 7.671875 0 L -1.234375 0 L 13.453125 -36.390625 Z M 21.390625 -14.5625 L 17.328125 -25.140625 L 17.25 -25.140625 L 13.1875 -14.5625 Z M 21.390625 -14.5625 "/></g></g></g><g fill="#000000" fill-opacity="1"><g transform="translate(115.803807, 54.369051)"><g><path d="M 2.640625 -36.390625 L 13.1875 -36.390625 C 18.25 -36.390625 22.570312 -34.660156 26.15625 -31.203125 C 29.738281 -27.753906 31.53125 -23.425781 31.53125 -18.21875 C 31.53125 -12.976562 29.742188 -8.628906 26.171875 -5.171875 C 22.597656 -1.722656 18.269531 0 13.1875 0 L 2.640625 0 Z M 10.9375 -7.40625 L 12.21875 -7.40625 C 15.25 -7.40625 17.726562 -8.425781 19.65625 -10.46875 C 21.582031 -12.519531 22.554688 -15.085938 22.578125 -18.171875 C 22.578125 -21.253906 21.613281 -23.828125 19.6875 -25.890625 C 17.769531 -27.953125 15.28125 -28.984375 12.21875 -28.984375 L 10.9375 -28.984375 Z M 10.9375 -7.40625 "/></g></g></g><g fill="#000000" fill-opacity="1"><g transform="translate(149.988719, 54.369051)"><g><path d="M 30.609375 -36.390625 L 30.609375 -12.921875 C 30.609375 -8.453125 29.398438 -5.070312 26.984375 -2.78125 C 24.578125 -0.488281 21.050781 0.65625 16.40625 0.65625 C 11.757812 0.65625 8.226562 -0.488281 5.8125 -2.78125 C 3.40625 -5.070312 2.203125 -8.453125 2.203125 -12.921875 L 2.203125 -36.390625 L 10.5 -36.390625 L 10.5 -15.34375 C 10.5 -12.40625 10.960938 -10.363281 11.890625 -9.21875 C 12.816406 -8.070312 14.320312 -7.5 16.40625 -7.5 C 18.5 -7.5 20.003906 -8.070312 20.921875 -9.21875 C 21.847656 -10.363281 22.3125 -12.40625 22.3125 -15.34375 L 22.3125 -36.390625 Z M 30.609375 -36.390625 "/></g></g></g><g fill="#c1121f" fill-opacity="1"><g transform="translate(184.440291, 54.369051)"><g><path d="M 23.6875 -36.390625 L 23.6875 -29.109375 L 10.9375 -29.109375 L 10.9375 -21.875 L 22.71875 -21.875 L 22.71875 -14.59375 L 10.9375 -14.59375 L 10.9375 0 L 2.640625 0 L 2.640625 -36.390625 Z M 23.6875 -36.390625 "/></g></g></g><g fill="#c1121f" fill-opacity="1"><g transform="translate(211.082532, 54.369051)"><g><path d="M 10.9375 -36.390625 L 10.9375 -7.28125 L 23.46875 -7.28125 L 23.46875 0 L 2.640625 0 L 2.640625 -36.390625 Z M 10.9375 -36.390625 "/></g></g></g><g fill="#c1121f" fill-opacity="1"><g transform="translate(237.636564, 54.369051)"><g><path d="M 21.125 -36.390625 L 35.8125 0 L 26.90625 0 L 24.21875 -7.28125 L 10.359375 -7.28125 L 7.671875 0 L -1.234375 0 L 13.453125 -36.390625 Z M 21.390625 -14.5625 L 17.328125 -25.140625 L 17.25 -25.140625 L 13.1875 -14.5625 Z M 21.390625 -14.5625 "/></g></g></g><g fill="#c1121f" fill-opacity="1"><g transform="translate(273.850504, 54.369051)"><g><path d="M 16.0625 -37.046875 C 18.03125 -37.046875 19.953125 -36.757812 21.828125 -36.1875 C 23.710938 -35.613281 25.113281 -35.050781 26.03125 -34.5 L 27.34375 -33.609375 L 24 -27 C 23.726562 -27.175781 23.359375 -27.398438 22.890625 -27.671875 C 22.421875 -27.953125 21.539062 -28.328125 20.25 -28.796875 C 18.957031 -29.273438 17.75 -29.515625 16.625 -29.515625 C 15.25 -29.515625 14.1875 -29.21875 13.4375 -28.625 C 12.6875 -28.039062 12.3125 -27.25 12.3125 -26.25 C 12.3125 -25.75 12.484375 -25.285156 12.828125 -24.859375 C 13.179688 -24.429688 13.785156 -23.972656 14.640625 -23.484375 C 15.492188 -23.003906 16.242188 -22.613281 16.890625 -22.3125 C 17.535156 -22.019531 18.535156 -21.582031 19.890625 -21 C 22.242188 -20 24.25 -18.632812 25.90625 -16.90625 C 27.570312 -15.1875 28.40625 -13.242188 28.40625 -11.078125 C 28.40625 -8.984375 28.03125 -7.15625 27.28125 -5.59375 C 26.53125 -4.039062 25.5 -2.820312 24.1875 -1.9375 C 22.882812 -1.0625 21.4375 -0.410156 19.84375 0.015625 C 18.257812 0.441406 16.539062 0.65625 14.6875 0.65625 C 13.101562 0.65625 11.546875 0.492188 10.015625 0.171875 C 8.484375 -0.148438 7.203125 -0.550781 6.171875 -1.03125 C 5.140625 -1.519531 4.210938 -2 3.390625 -2.46875 C 2.566406 -2.9375 1.96875 -3.332031 1.59375 -3.65625 L 1.015625 -4.140625 L 5.15625 -11.109375 C 5.507812 -10.816406 5.992188 -10.441406 6.609375 -9.984375 C 7.234375 -9.535156 8.332031 -8.925781 9.90625 -8.15625 C 11.476562 -7.394531 12.867188 -7.015625 14.078125 -7.015625 C 17.566406 -7.015625 19.3125 -8.207031 19.3125 -10.59375 C 19.3125 -11.09375 19.1875 -11.550781 18.9375 -11.96875 C 18.6875 -12.394531 18.242188 -12.820312 17.609375 -13.25 C 16.984375 -13.675781 16.425781 -14.015625 15.9375 -14.265625 C 15.457031 -14.515625 14.664062 -14.894531 13.5625 -15.40625 C 12.457031 -15.925781 11.640625 -16.316406 11.109375 -16.578125 C 8.910156 -17.671875 7.207031 -19.03125 6 -20.65625 C 4.789062 -22.289062 4.1875 -24.050781 4.1875 -25.9375 C 4.1875 -29.195312 5.390625 -31.863281 7.796875 -33.9375 C 10.210938 -36.007812 12.96875 -37.046875 16.0625 -37.046875 Z M 16.0625 -37.046875 "/></g></g></g><g fill="#c1121f" fill-opacity="1"><g transform="translate(305.124219, 54.369051)"><g><path d="M 10.9375 -14.59375 L 10.9375 0 L 2.640625 0 L 2.640625 -36.390625 L 10.9375 -36.390625 L 10.9375 -21.875 L 22.671875 -21.875 L 22.671875 -36.390625 L 30.96875 -36.390625 L 30.96875 0 L 22.671875 0 L 22.671875 -14.59375 Z M 10.9375 -14.59375 "/></g></g></g><g transform="matrix(1, 0, 0, 1, 81, 65)"><g clip-path="url(#23766a2595)"><g fill="#000000" fill-opacity="1"><g transform="translate(1.142875, 8.802853)"><g><path d="M 2.03125 -5.078125 L 0.03125 -5.078125 L 0.03125 -6.03125 L 5.140625 -6.03125 L 5.140625 -5.078125 L 3.15625 -5.078125 L 3.15625 0 L 2.03125 0 Z M 2.03125 -5.078125 "/></g></g></g><g fill="#000000" fill-opacity="1"><g transform="translate(7.272262, 8.802853)"><g><path d="M 4.75 0 L 3.515625 -1.765625 C 3.460938 -1.753906 3.382812 -1.75 3.28125 -1.75 L 1.921875 -1.75 L 1.921875 0 L 0.8125 0 L 0.8125 -6.03125 L 3.28125 -6.03125 C 3.8125 -6.03125 4.269531 -5.941406 4.65625 -5.765625 C 5.039062 -5.597656 5.335938 -5.351562 5.546875 -5.03125 C 5.753906 -4.707031 5.859375 -4.320312 5.859375 -3.875 C 5.859375 -3.425781 5.742188 -3.035156 5.515625 -2.703125 C 5.296875 -2.378906 4.984375 -2.140625 4.578125 -1.984375 L 5.953125 0 Z M 4.71875 -3.875 C 4.71875 -4.257812 4.59375 -4.554688 4.34375 -4.765625 C 4.09375 -4.972656 3.722656 -5.078125 3.234375 -5.078125 L 1.921875 -5.078125 L 1.921875 -2.671875 L 3.234375 -2.671875 C 3.722656 -2.671875 4.09375 -2.773438 4.34375 -2.984375 C 4.59375 -3.203125 4.71875 -3.5 4.71875 -3.875 Z M 4.71875 -3.875 "/></g></g></g><g fill="#000000" fill-opacity="1"><g transform="translate(14.512179, 8.802853)"><g><path d="M 4.71875 -1.390625 L 1.703125 -1.390625 L 1.109375 0 L -0.046875 0 L 2.671875 -6.03125 L 3.765625 -6.03125 L 6.484375 0 L 5.328125 0 Z M 4.34375 -2.265625 L 3.21875 -4.90625 L 2.078125 -2.265625 Z M 4.34375 -2.265625 "/></g></g></g><g fill="#000000" fill-opacity="1"><g transform="translate(21.907054, 8.802853)"><g><path d="M 0.8125 -6.03125 L 3.4375 -6.03125 C 4.082031 -6.03125 4.65625 -5.90625 5.15625 -5.65625 C 5.65625 -5.40625 6.039062 -5.050781 6.3125 -4.59375 C 6.59375 -4.132812 6.734375 -3.609375 6.734375 -3.015625 C 6.734375 -2.421875 6.59375 -1.894531 6.3125 -1.4375 C 6.039062 -0.976562 5.65625 -0.625 5.15625 -0.375 C 4.65625 -0.125 4.082031 0 3.4375 0 L 0.8125 0 Z M 3.390625 -0.953125 C 3.835938 -0.953125 4.226562 -1.035156 4.5625 -1.203125 C 4.894531 -1.367188 5.148438 -1.609375 5.328125 -1.921875 C 5.515625 -2.234375 5.609375 -2.597656 5.609375 -3.015625 C 5.609375 -3.429688 5.515625 -3.796875 5.328125 -4.109375 C 5.148438 -4.421875 4.894531 -4.660156 4.5625 -4.828125 C 4.226562 -4.992188 3.835938 -5.078125 3.390625 -5.078125 L 1.921875 -5.078125 L 1.921875 -0.953125 Z M 3.390625 -0.953125 "/></g></g></g><g fill="#000000" fill-opacity="1"><g transform="translate(29.964792, 8.802853)"><g><path d="M 3.40625 0.09375 C 2.570312 0.09375 1.921875 -0.140625 1.453125 -0.609375 C 0.984375 -1.078125 0.75 -1.75 0.75 -2.625 L 0.75 -6.03125 L 1.875 -6.03125 L 1.875 -2.671875 C 1.875 -1.484375 2.382812 -0.890625 3.40625 -0.890625 C 4.425781 -0.890625 4.9375 -1.484375 4.9375 -2.671875 L 4.9375 -6.03125 L 6.03125 -6.03125 L 6.03125 -2.625 C 6.03125 -1.75 5.800781 -1.078125 5.34375 -0.609375 C 4.882812 -0.140625 4.238281 0.09375 3.40625 0.09375 Z M 3.40625 0.09375 "/></g></g></g><g fill="#000000" fill-opacity="1"><g transform="translate(37.70401, 8.802853)"><g><path d="M 3.59375 0.09375 C 2.988281 0.09375 2.441406 -0.0390625 1.953125 -0.3125 C 1.460938 -0.582031 1.078125 -0.953125 0.796875 -1.421875 C 0.515625 -1.890625 0.375 -2.421875 0.375 -3.015625 C 0.375 -3.609375 0.515625 -4.140625 0.796875 -4.609375 C 1.078125 -5.078125 1.460938 -5.441406 1.953125 -5.703125 C 2.441406 -5.972656 2.992188 -6.109375 3.609375 -6.109375 C 4.097656 -6.109375 4.546875 -6.019531 4.953125 -5.84375 C 5.359375 -5.675781 5.703125 -5.429688 5.984375 -5.109375 L 5.265625 -4.421875 C 4.828125 -4.890625 4.289062 -5.125 3.65625 -5.125 C 3.25 -5.125 2.878906 -5.035156 2.546875 -4.859375 C 2.222656 -4.679688 1.96875 -4.429688 1.78125 -4.109375 C 1.59375 -3.785156 1.5 -3.421875 1.5 -3.015625 C 1.5 -2.609375 1.59375 -2.242188 1.78125 -1.921875 C 1.96875 -1.597656 2.222656 -1.34375 2.546875 -1.15625 C 2.878906 -0.976562 3.25 -0.890625 3.65625 -0.890625 C 4.289062 -0.890625 4.828125 -1.128906 5.265625 -1.609375 L 5.984375 -0.921875 C 5.703125 -0.597656 5.359375 -0.347656 4.953125 -0.171875 C 4.546875 0.00390625 4.09375 0.09375 3.59375 0.09375 Z M 3.59375 0.09375 "/></g></g></g><g fill="#000000" fill-opacity="1"><g transform="translate(44.90949, 8.802853)"><g><path d="M 3.59375 0.09375 C 2.988281 0.09375 2.441406 -0.0390625 1.953125 -0.3125 C 1.460938 -0.582031 1.078125 -0.953125 0.796875 -1.421875 C 0.515625 -1.890625 0.375 -2.421875 0.375 -3.015625 C 0.375 -3.609375 0.515625 -4.140625 0.796875 -4.609375 C 1.078125 -5.078125 1.460938 -5.441406 1.953125 -5.703125 C 2.441406 -5.972656 2.992188 -6.109375 3.609375 -6.109375 C 4.097656 -6.109375 4.546875 -6.019531 4.953125 -5.84375 C 5.359375 -5.675781 5.703125 -5.429688 5.984375 -5.109375 L 5.265625 -4.421875 C 4.828125 -4.890625 4.289062 -5.125 3.65625 -5.125 C 3.25 -5.125 2.878906 -5.035156 2.546875 -4.859375 C 2.222656 -4.679688 1.96875 -4.429688 1.78125 -4.109375 C 1.59375 -3.785156 1.5 -3.421875 1.5 -3.015625 C 1.5 -2.609375 1.59375 -2.242188 1.78125 -1.921875 C 1.96875 -1.597656 2.222656 -1.34375 2.546875 -1.15625 C 2.878906 -0.976562 3.25 -0.890625 3.65625 -0.890625 C 4.289062 -0.890625 4.828125 -1.128906 5.265625 -1.609375 L 5.984375 -0.921875 C 5.703125 -0.597656 5.359375 -0.347656 4.953125 -0.171875 C 4.546875 0.00390625 4.09375 0.09375 3.59375 0.09375 Z M 3.59375 0.09375 "/></g></g></g><g fill="#000000" fill-opacity="1"><g transform="translate(52.114969, 8.802853)"><g><path d="M 0.8125 -6.03125 L 1.921875 -6.03125 L 1.921875 0 L 0.8125 0 Z M 0.8125 -6.03125 "/></g></g></g><g fill="#000000" fill-opacity="1"><g transform="translate(55.808099, 8.802853)"><g><path d="M 3.625 0.09375 C 3.007812 0.09375 2.453125 -0.0390625 1.953125 -0.3125 C 1.460938 -0.582031 1.078125 -0.953125 0.796875 -1.421875 C 0.515625 -1.898438 0.375 -2.429688 0.375 -3.015625 C 0.375 -3.597656 0.515625 -4.125 0.796875 -4.59375 C 1.078125 -5.070312 1.460938 -5.441406 1.953125 -5.703125 C 2.453125 -5.972656 3.007812 -6.109375 3.625 -6.109375 C 4.238281 -6.109375 4.789062 -5.972656 5.28125 -5.703125 C 5.78125 -5.441406 6.171875 -5.078125 6.453125 -4.609375 C 6.734375 -4.140625 6.875 -3.609375 6.875 -3.015625 C 6.875 -2.421875 6.734375 -1.890625 6.453125 -1.421875 C 6.171875 -0.953125 5.78125 -0.582031 5.28125 -0.3125 C 4.789062 -0.0390625 4.238281 0.09375 3.625 0.09375 Z M 3.625 -0.890625 C 4.03125 -0.890625 4.390625 -0.976562 4.703125 -1.15625 C 5.023438 -1.34375 5.28125 -1.597656 5.46875 -1.921875 C 5.65625 -2.242188 5.75 -2.609375 5.75 -3.015625 C 5.75 -3.410156 5.65625 -3.769531 5.46875 -4.09375 C 5.28125 -4.425781 5.023438 -4.679688 4.703125 -4.859375 C 4.390625 -5.035156 4.03125 -5.125 3.625 -5.125 C 3.21875 -5.125 2.851562 -5.035156 2.53125 -4.859375 C 2.21875 -4.679688 1.96875 -4.425781 1.78125 -4.09375 C 1.59375 -3.769531 1.5 -3.410156 1.5 -3.015625 C 1.5 -2.609375 1.59375 -2.242188 1.78125 -1.921875 C 1.96875 -1.597656 2.21875 -1.34375 2.53125 -1.15625 C 2.851562 -0.976562 3.21875 -0.890625 3.625 -0.890625 Z M 4.0625 -7.703125 L 5.328125 -7.703125 L 3.828125 -6.515625 L 2.890625 -6.515625 Z M 4.0625 -7.703125 "/></g></g></g><g fill="#000000" fill-opacity="1"><g transform="translate(64.003577, 8.802853)"><g><path d="M 6.171875 -6.03125 L 6.171875 0 L 5.25 0 L 1.921875 -4.078125 L 1.921875 0 L 0.8125 0 L 0.8125 -6.03125 L 1.734375 -6.03125 L 5.046875 -1.953125 L 5.046875 -6.03125 Z M 6.171875 -6.03125 "/></g></g></g><g fill="#000000" fill-opacity="1"><g transform="translate(71.923576, 8.802853)"><g/></g></g><g fill="#000000" fill-opacity="1"><g transform="translate(75.24653, 8.802853)"><g><path d="M 3.28125 -6.03125 C 3.8125 -6.03125 4.269531 -5.941406 4.65625 -5.765625 C 5.039062 -5.597656 5.335938 -5.351562 5.546875 -5.03125 C 5.753906 -4.707031 5.859375 -4.320312 5.859375 -3.875 C 5.859375 -3.445312 5.753906 -3.066406 5.546875 -2.734375 C 5.335938 -2.410156 5.039062 -2.160156 4.65625 -1.984375 C 4.269531 -1.816406 3.8125 -1.734375 3.28125 -1.734375 L 1.921875 -1.734375 L 1.921875 0 L 0.8125 0 L 0.8125 -6.03125 Z M 3.234375 -2.6875 C 3.722656 -2.6875 4.09375 -2.789062 4.34375 -3 C 4.59375 -3.207031 4.71875 -3.5 4.71875 -3.875 C 4.71875 -4.257812 4.59375 -4.554688 4.34375 -4.765625 C 4.09375 -4.972656 3.722656 -5.078125 3.234375 -5.078125 L 1.921875 -5.078125 L 1.921875 -2.6875 Z M 3.234375 -2.6875 "/></g></g></g><g fill="#000000" fill-opacity="1"><g transform="translate(82.443405, 8.802853)"><g><path d="M 4.75 0 L 3.515625 -1.765625 C 3.460938 -1.753906 3.382812 -1.75 3.28125 -1.75 L 1.921875 -1.75 L 1.921875 0 L 0.8125 0 L 0.8125 -6.03125 L 3.28125 -6.03125 C 3.8125 -6.03125 4.269531 -5.941406 4.65625 -5.765625 C 5.039062 -5.597656 5.335938 -5.351562 5.546875 -5.03125 C 5.753906 -4.707031 5.859375 -4.320312 5.859375 -3.875 C 5.859375 -3.425781 5.742188 -3.035156 5.515625 -2.703125 C 5.296875 -2.378906 4.984375 -2.140625 4.578125 -1.984375 L 5.953125 0 Z M 4.71875 -3.875 C 4.71875 -4.257812 4.59375 -4.554688 4.34375 -4.765625 C 4.09375 -4.972656 3.722656 -5.078125 3.234375 -5.078125 L 1.921875 -5.078125 L 1.921875 -2.671875 L 3.234375 -2.671875 C 3.722656 -2.671875 4.09375 -2.773438 4.34375 -2.984375 C 4.59375 -3.203125 4.71875 -3.5 4.71875 -3.875 Z M 4.71875 -3.875 "/></g></g></g><g fill="#000000" fill-opacity="1"><g transform="translate(89.683322, 8.802853)"><g><path d="M 3.625 0.09375 C 3.007812 0.09375 2.453125 -0.0390625 1.953125 -0.3125 C 1.460938 -0.582031 1.078125 -0.953125 0.796875 -1.421875 C 0.515625 -1.898438 0.375 -2.429688 0.375 -3.015625 C 0.375 -3.597656 0.515625 -4.125 0.796875 -4.59375 C 1.078125 -5.070312 1.460938 -5.441406 1.953125 -5.703125 C 2.453125 -5.972656 3.007812 -6.109375 3.625 -6.109375 C 4.238281 -6.109375 4.789062 -5.972656 5.28125 -5.703125 C 5.78125 -5.441406 6.171875 -5.078125 6.453125 -4.609375 C 6.734375 -4.140625 6.875 -3.609375 6.875 -3.015625 C 6.875 -2.421875 6.734375 -1.890625 6.453125 -1.421875 C 6.171875 -0.953125 5.78125 -0.582031 5.28125 -0.3125 C 4.789062 -0.0390625 4.238281 0.09375 3.625 0.09375 Z M 3.625 -0.890625 C 4.03125 -0.890625 4.390625 -0.976562 4.703125 -1.15625 C 5.023438 -1.34375 5.28125 -1.597656 5.46875 -1.921875 C 5.65625 -2.242188 5.75 -2.609375 5.75 -3.015625 C 5.75 -3.410156 5.65625 -3.769531 5.46875 -4.09375 C 5.28125 -4.425781 5.023438 -4.679688 4.703125 -4.859375 C 4.390625 -5.035156 4.03125 -5.125 3.625 -5.125 C 3.21875 -5.125 2.851562 -5.035156 2.53125 -4.859375 C 2.21875 -4.679688 1.96875 -4.425781 1.78125 -4.09375 C 1.59375 -3.769531 1.5 -3.410156 1.5 -3.015625 C 1.5 -2.609375 1.59375 -2.242188 1.78125 -1.921875 C 1.96875 -1.597656 2.21875 -1.34375 2.53125 -1.15625 C 2.851562 -0.976562 3.21875 -0.890625 3.625 -0.890625 Z M 3.625 -0.890625 "/></g></g></g><g fill="#000000" fill-opacity="1"><g transform="translate(97.8788, 8.802853)"><g><path d="M 1.921875 -5.09375 L 1.921875 -3.25 L 4.84375 -3.25 L 4.84375 -2.3125 L 1.921875 -2.3125 L 1.921875 0 L 0.8125 0 L 0.8125 -6.03125 L 5.203125 -6.03125 L 5.203125 -5.09375 Z M 1.921875 -5.09375 "/></g></g></g><g fill="#000000" fill-opacity="1"><g transform="translate(104.309499, 8.802853)"><g><path d="M 5.328125 -0.9375 L 5.328125 0 L 0.8125 0 L 0.8125 -6.03125 L 5.203125 -6.03125 L 5.203125 -5.09375 L 1.921875 -5.09375 L 1.921875 -3.515625 L 4.84375 -3.515625 L 4.84375 -2.59375 L 1.921875 -2.59375 L 1.921875 -0.9375 Z M 5.328125 -0.9375 "/></g></g></g><g fill="#000000" fill-opacity="1"><g transform="translate(111.024281, 8.802853)"><g><path d="M 2.671875 0.09375 C 2.210938 0.09375 1.765625 0.0234375 1.328125 -0.109375 C 0.898438 -0.242188 0.554688 -0.421875 0.296875 -0.640625 L 0.6875 -1.5 C 0.9375 -1.3125 1.238281 -1.15625 1.59375 -1.03125 C 1.957031 -0.90625 2.316406 -0.84375 2.671875 -0.84375 C 3.117188 -0.84375 3.453125 -0.914062 3.671875 -1.0625 C 3.898438 -1.207031 4.015625 -1.394531 4.015625 -1.625 C 4.015625 -1.800781 3.953125 -1.941406 3.828125 -2.046875 C 3.703125 -2.160156 3.546875 -2.25 3.359375 -2.3125 C 3.171875 -2.375 2.910156 -2.445312 2.578125 -2.53125 C 2.117188 -2.632812 1.75 -2.738281 1.46875 -2.84375 C 1.1875 -2.957031 0.941406 -3.128906 0.734375 -3.359375 C 0.535156 -3.597656 0.4375 -3.914062 0.4375 -4.3125 C 0.4375 -4.644531 0.523438 -4.945312 0.703125 -5.21875 C 0.878906 -5.488281 1.148438 -5.703125 1.515625 -5.859375 C 1.878906 -6.023438 2.328125 -6.109375 2.859375 -6.109375 C 3.222656 -6.109375 3.582031 -6.0625 3.9375 -5.96875 C 4.300781 -5.882812 4.609375 -5.753906 4.859375 -5.578125 L 4.515625 -4.703125 C 4.242188 -4.859375 3.960938 -4.976562 3.671875 -5.0625 C 3.390625 -5.144531 3.113281 -5.1875 2.84375 -5.1875 C 2.40625 -5.1875 2.078125 -5.109375 1.859375 -4.953125 C 1.648438 -4.804688 1.546875 -4.609375 1.546875 -4.359375 C 1.546875 -4.191406 1.601562 -4.050781 1.71875 -3.9375 C 1.84375 -3.832031 2 -3.75 2.1875 -3.6875 C 2.382812 -3.625 2.644531 -3.550781 2.96875 -3.46875 C 3.414062 -3.363281 3.78125 -3.253906 4.0625 -3.140625 C 4.351562 -3.035156 4.597656 -2.867188 4.796875 -2.640625 C 5.003906 -2.410156 5.109375 -2.097656 5.109375 -1.703125 C 5.109375 -1.367188 5.019531 -1.066406 4.84375 -0.796875 C 4.664062 -0.523438 4.390625 -0.304688 4.015625 -0.140625 C 3.648438 0.015625 3.203125 0.09375 2.671875 0.09375 Z M 2.671875 0.09375 "/></g></g></g><g fill="#000000" fill-opacity="1"><g transform="translate(117.386105, 8.802853)"><g><path d="M 0.8125 -6.03125 L 1.921875 -6.03125 L 1.921875 0 L 0.8125 0 Z M 0.8125 -6.03125 "/></g></g></g><g fill="#000000" fill-opacity="1"><g transform="translate(121.079236, 8.802853)"><g><path d="M 3.625 0.09375 C 3.007812 0.09375 2.453125 -0.0390625 1.953125 -0.3125 C 1.460938 -0.582031 1.078125 -0.953125 0.796875 -1.421875 C 0.515625 -1.898438 0.375 -2.429688 0.375 -3.015625 C 0.375 -3.597656 0.515625 -4.125 0.796875 -4.59375 C 1.078125 -5.070312 1.460938 -5.441406 1.953125 -5.703125 C 2.453125 -5.972656 3.007812 -6.109375 3.625 -6.109375 C 4.238281 -6.109375 4.789062 -5.972656 5.28125 -5.703125 C 5.78125 -5.441406 6.171875 -5.078125 6.453125 -4.609375 C 6.734375 -4.140625 6.875 -3.609375 6.875 -3.015625 C 6.875 -2.421875 6.734375 -1.890625 6.453125 -1.421875 C 6.171875 -0.953125 5.78125 -0.582031 5.28125 -0.3125 C 4.789062 -0.0390625 4.238281 0.09375 3.625 0.09375 Z M 3.625 -0.890625 C 4.03125 -0.890625 4.390625 -0.976562 4.703125 -1.15625 C 5.023438 -1.34375 5.28125 -1.597656 5.46875 -1.921875 C 5.65625 -2.242188 5.75 -2.609375 5.75 -3.015625 C 5.75 -3.410156 5.65625 -3.769531 5.46875 -4.09375 C 5.28125 -4.425781 5.023438 -4.679688 4.703125 -4.859375 C 4.390625 -5.035156 4.03125 -5.125 3.625 -5.125 C 3.21875 -5.125 2.851562 -5.035156 2.53125 -4.859375 C 2.21875 -4.679688 1.96875 -4.425781 1.78125 -4.09375 C 1.59375 -3.769531 1.5 -3.410156 1.5 -3.015625 C 1.5 -2.609375 1.59375 -2.242188 1.78125 -1.921875 C 1.96875 -1.597656 2.21875 -1.34375 2.53125 -1.15625 C 2.851562 -0.976562 3.21875 -0.890625 3.625 -0.890625 Z M 3.625 -0.890625 "/></g></g></g><g fill="#000000" fill-opacity="1"><g transform="translate(129.274713, 8.802853)"><g><path d="M 6.171875 -6.03125 L 6.171875 0 L 5.25 0 L 1.921875 -4.078125 L 1.921875 0 L 0.8125 0 L 0.8125 -6.03125 L 1.734375 -6.03125 L 5.046875 -1.953125 L 5.046875 -6.03125 Z M 6.171875 -6.03125 "/></g></g></g><g fill="#000000" fill-opacity="1"><g transform="translate(137.194712, 8.802853)"><g><path d="M 4.71875 -1.390625 L 1.703125 -1.390625 L 1.109375 0 L -0.046875 0 L 2.671875 -6.03125 L 3.765625 -6.03125 L 6.484375 0 L 5.328125 0 Z M 4.34375 -2.265625 L 3.21875 -4.90625 L 2.078125 -2.265625 Z M 4.34375 -2.265625 "/></g></g></g><g fill="#000000" fill-opacity="1"><g transform="translate(144.589588, 8.802853)"><g><path d="M 0.8125 -6.03125 L 1.921875 -6.03125 L 1.921875 -0.953125 L 5.078125 -0.953125 L 5.078125 0 L 0.8125 0 Z M 0.8125 -6.03125 "/></g></g></g><g fill="#000000" fill-opacity="1"><g transform="translate(150.693152, 8.802853)"><g/></g></g><g fill="#000000" fill-opacity="1"><g transform="translate(154.016105, 8.802853)"><g><path d="M 4.75 0 L 3.515625 -1.765625 C 3.460938 -1.753906 3.382812 -1.75 3.28125 -1.75 L 1.921875 -1.75 L 1.921875 0 L 0.8125 0 L 0.8125 -6.03125 L 3.28125 -6.03125 C 3.8125 -6.03125 4.269531 -5.941406 4.65625 -5.765625 C 5.039062 -5.597656 5.335938 -5.351562 5.546875 -5.03125 C 5.753906 -4.707031 5.859375 -4.320312 5.859375 -3.875 C 5.859375 -3.425781 5.742188 -3.035156 5.515625 -2.703125 C 5.296875 -2.378906 4.984375 -2.140625 4.578125 -1.984375 L 5.953125 0 Z M 4.71875 -3.875 C 4.71875 -4.257812 4.59375 -4.554688 4.34375 -4.765625 C 4.09375 -4.972656 3.722656 -5.078125 3.234375 -5.078125 L 1.921875 -5.078125 L 1.921875 -2.671875 L 3.234375 -2.671875 C 3.722656 -2.671875 4.09375 -2.773438 4.34375 -2.984375 C 4.59375 -3.203125 4.71875 -3.5 4.71875 -3.875 Z M 4.71875 -3.875 "/></g></g></g><g fill="#000000" fill-opacity="1"><g transform="translate(161.256022, 8.802853)"><g><path d="M 4.71875 -1.390625 L 1.703125 -1.390625 L 1.109375 0 L -0.046875 0 L 2.671875 -6.03125 L 3.765625 -6.03125 L 6.484375 0 L 5.328125 0 Z M 4.34375 -2.265625 L 3.21875 -4.90625 L 2.078125 -2.265625 Z M 3.65625 -7.703125 L 4.921875 -7.703125 L 3.421875 -6.515625 L 2.484375 -6.515625 Z M 3.65625 -7.703125 "/></g></g></g><g fill="#000000" fill-opacity="1"><g transform="translate(168.650897, 8.802853)"><g><path d="M 3.28125 -6.03125 C 3.8125 -6.03125 4.269531 -5.941406 4.65625 -5.765625 C 5.039062 -5.597656 5.335938 -5.351562 5.546875 -5.03125 C 5.753906 -4.707031 5.859375 -4.320312 5.859375 -3.875 C 5.859375 -3.445312 5.753906 -3.066406 5.546875 -2.734375 C 5.335938 -2.410156 5.039062 -2.160156 4.65625 -1.984375 C 4.269531 -1.816406 3.8125 -1.734375 3.28125 -1.734375 L 1.921875 -1.734375 L 1.921875 0 L 0.8125 0 L 0.8125 -6.03125 Z M 3.234375 -2.6875 C 3.722656 -2.6875 4.09375 -2.789062 4.34375 -3 C 4.59375 -3.207031 4.71875 -3.5 4.71875 -3.875 C 4.71875 -4.257812 4.59375 -4.554688 4.34375 -4.765625 C 4.09375 -4.972656 3.722656 -5.078125 3.234375 -5.078125 L 1.921875 -5.078125 L 1.921875 -2.6875 Z M 3.234375 -2.6875 "/></g></g></g><g fill="#000000" fill-opacity="1"><g transform="translate(175.847773, 8.802853)"><g><path d="M 0.8125 -6.03125 L 1.921875 -6.03125 L 1.921875 0 L 0.8125 0 Z M 0.8125 -6.03125 "/></g></g></g><g fill="#000000" fill-opacity="1"><g transform="translate(179.540903, 8.802853)"><g><path d="M 0.8125 -6.03125 L 3.4375 -6.03125 C 4.082031 -6.03125 4.65625 -5.90625 5.15625 -5.65625 C 5.65625 -5.40625 6.039062 -5.050781 6.3125 -4.59375 C 6.59375 -4.132812 6.734375 -3.609375 6.734375 -3.015625 C 6.734375 -2.421875 6.59375 -1.894531 6.3125 -1.4375 C 6.039062 -0.976562 5.65625 -0.625 5.15625 -0.375 C 4.65625 -0.125 4.082031 0 3.4375 0 L 0.8125 0 Z M 3.390625 -0.953125 C 3.835938 -0.953125 4.226562 -1.035156 4.5625 -1.203125 C 4.894531 -1.367188 5.148438 -1.609375 5.328125 -1.921875 C 5.515625 -2.234375 5.609375 -2.597656 5.609375 -3.015625 C 5.609375 -3.429688 5.515625 -3.796875 5.328125 -4.109375 C 5.148438 -4.421875 4.894531 -4.660156 4.5625 -4.828125 C 4.226562 -4.992188 3.835938 -5.078125 3.390625 -5.078125 L 1.921875 -5.078125 L 1.921875 -0.953125 Z M 3.390625 -0.953125 "/></g></g></g><g fill="#000000" fill-opacity="1"><g transform="translate(187.598652, 8.802853)"><g><path d="M 4.71875 -1.390625 L 1.703125 -1.390625 L 1.109375 0 L -0.046875 0 L 2.671875 -6.03125 L 3.765625 -6.03125 L 6.484375 0 L 5.328125 0 Z M 4.34375 -2.265625 L 3.21875 -4.90625 L 2.078125 -2.265625 Z M 4.34375 -2.265625 "/></g></g></g></g></g></svg>